<svg width="22" height="22" viewBox="0 0 22 22" fill="none" xmlns="http://www.w3.org/2000/svg">
<path fill-rule="evenodd" clip-rule="evenodd" d="M11 2.07922L8.7872 4.36872C8.55168 4.6124 8.2273 4.75002 7.88839 4.75002H4.75V7.8884C4.75 8.22731 4.61239 8.55169 4.3687 8.78722L2.0792 11L4.3687 13.2128C4.61239 13.4483 4.75 13.7727 4.75 14.1116V17.25H7.88839C8.22729 17.25 8.55167 17.3876 8.7872 17.6313L11 19.9208L13.2128 17.6313C13.4483 17.3876 13.7727 17.25 14.1116 17.25H17.25V14.1116C17.25 13.7727 17.3876 13.4483 17.6313 13.2128L19.9208 11L17.6313 8.78722C17.3876 8.5517 17.25 8.22732 17.25 7.88841V4.75002H14.1116C13.7727 4.75002 13.4483 4.61241 13.2128 4.36872L11 2.07922ZM10.1012 0.850783C10.5926 0.342382 11.4074 0.342383 11.8988 0.850783L14.2177 3.25002H17.5C18.1904 3.25002 18.75 3.80966 18.75 4.50002V7.78235L21.1492 10.1012C21.6576 10.5926 21.6576 11.4075 21.1492 11.8988L18.75 14.2177V17.5C18.75 18.1904 18.1904 18.75 17.5 18.75H14.2177L11.8988 21.1492C11.4074 21.6576 10.5926 21.6576 10.1012 21.1492L7.78233 18.75H4.5C3.80964 18.75 3.25 18.1904 3.25 17.5V14.2177L0.850767 11.8988C0.342368 11.4075 0.342367 10.5926 0.850767 10.1012L3.25 7.78235V4.50002C3.25 3.80966 3.80965 3.25002 4.5 3.25002H7.78233L10.1012 0.850783Z" fill="#999"/>
<path fill-rule="evenodd" clip-rule="evenodd" d="M6.25 11C6.25 8.37666 8.37665 6.25002 11 6.25002C13.6234 6.25002 15.75 8.37666 15.75 11C15.75 13.6234 13.6234 15.75 11 15.75C8.37665 15.75 6.25 13.6234 6.25 11ZM11 7.75002C9.20508 7.75002 7.75 9.20509 7.75 11C7.75 12.7949 9.20508 14.25 11 14.25C12.7949 14.25 14.25 12.7949 14.25 11C14.25 9.20509 12.7949 7.75002 11 7.75002Z" fill="#999"/>
</svg>
