<svg width="20" height="20" viewBox="0 0 20 20" fill="none" xmlns="http://www.w3.org/2000/svg">
<path fill-rule="evenodd" clip-rule="evenodd" d="M6.92918 2.47027C5.65796 2.32819 4.34205 2.32819 3.07084 2.47027C2.76195 2.50479 2.51835 2.74938 2.48361 3.04644C2.3318 4.34438 2.3318 5.65559 2.48361 6.95353C2.51835 7.25059 2.76195 7.49518 3.07084 7.5297C4.34206 7.67178 5.65796 7.67178 6.92918 7.5297C7.23807 7.49518 7.48167 7.25059 7.51641 6.95353C7.66822 5.65559 7.66822 4.34438 7.51641 3.04644C7.48167 2.74938 7.23807 2.50479 6.92918 2.47027ZM2.90423 0.979548C4.28617 0.825095 5.71384 0.825095 7.09579 0.979548C8.08663 1.09029 8.88907 1.87028 9.00626 2.87219C9.1716 4.2859 9.1716 5.71407 9.00626 7.12778C8.88907 8.12969 8.08663 8.90968 7.09579 9.02042C5.71384 9.17487 4.28617 9.17487 2.90423 9.02042C1.91339 8.90968 1.11094 8.12969 0.993761 7.12778C0.828414 5.71407 0.828414 4.2859 0.993761 2.87219C1.11094 1.87028 1.91339 1.09029 2.90423 0.979548Z" fill="#999"/>
<path fill-rule="evenodd" clip-rule="evenodd" d="M6.92918 12.4703C5.65796 12.3282 4.34205 12.3282 3.07084 12.4703C2.76195 12.5048 2.51835 12.7494 2.48361 13.0464C2.3318 14.3444 2.3318 15.6556 2.48361 16.9535C2.51835 17.2506 2.76195 17.4952 3.07084 17.5297C4.34206 17.6718 5.65796 17.6718 6.92918 17.5297C7.23807 17.4952 7.48167 17.2506 7.51641 16.9535C7.66822 15.6556 7.66822 14.3444 7.51641 13.0464C7.48167 12.7494 7.23807 12.5048 6.92918 12.4703ZM2.90423 10.9795C4.28617 10.8251 5.71384 10.8251 7.09579 10.9795C8.08663 11.0903 8.88907 11.8703 9.00626 12.8722C9.1716 14.2859 9.1716 15.7141 9.00626 17.1278C8.88907 18.1297 8.08663 18.9097 7.09579 19.0204C5.71384 19.1749 4.28617 19.1749 2.90423 19.0204C1.91339 18.9097 1.11094 18.1297 0.993761 17.1278C0.828414 15.7141 0.828414 14.2859 0.993761 12.8722C1.11094 11.8703 1.91339 11.0903 2.90423 10.9795Z" fill="#999"/>
<path fill-rule="evenodd" clip-rule="evenodd" d="M16.9292 2.47027C15.658 2.32819 14.3421 2.32819 13.0708 2.47027C12.7619 2.50479 12.5183 2.74938 12.4836 3.04644C12.3318 4.34438 12.3318 5.65559 12.4836 6.95353C12.5183 7.25059 12.7619 7.49518 13.0708 7.5297C14.3421 7.67178 15.658 7.67178 16.9292 7.5297C17.2381 7.49518 17.4817 7.25059 17.5164 6.95353C17.6682 5.65559 17.6682 4.34438 17.5164 3.04644C17.4817 2.74938 17.2381 2.50479 16.9292 2.47027ZM12.9042 0.979548C14.2862 0.825095 15.7138 0.825095 17.0958 0.979548C18.0866 1.09029 18.8891 1.87028 19.0063 2.87219C19.1716 4.2859 19.1716 5.71407 19.0063 7.12778C18.8891 8.12969 18.0866 8.90968 17.0958 9.02042C15.7138 9.17487 14.2862 9.17487 12.9042 9.02042C11.9134 8.90968 11.1109 8.12969 10.9938 7.12778C10.8284 5.71407 10.8284 4.2859 10.9938 2.87219C11.1109 1.87028 11.9134 1.09029 12.9042 0.979548Z" fill="#999"/>
<path fill-rule="evenodd" clip-rule="evenodd" d="M16.9292 12.4703C15.658 12.3282 14.3421 12.3282 13.0708 12.4703C12.7619 12.5048 12.5183 12.7494 12.4836 13.0464C12.3318 14.3444 12.3318 15.6556 12.4836 16.9535C12.5183 17.2506 12.7619 17.4952 13.0708 17.5297C14.3421 17.6718 15.658 17.6718 16.9292 17.5297C17.2381 17.4952 17.4817 17.2506 17.5164 16.9535C17.6682 15.6556 17.6682 14.3444 17.5164 13.0464C17.4817 12.7494 17.2381 12.5048 16.9292 12.4703ZM12.9042 10.9795C14.2862 10.8251 15.7138 10.8251 17.0958 10.9795C18.0866 11.0903 18.8891 11.8703 19.0063 12.8722C19.1716 14.2859 19.1716 15.7141 19.0063 17.1278C18.8891 18.1297 18.0866 18.9097 17.0958 19.0204C15.7138 19.1749 14.2862 19.1749 12.9042 19.0204C11.9134 18.9097 11.1109 18.1297 10.9938 17.1278C10.8284 15.7141 10.8284 14.2859 10.9938 12.8722C11.1109 11.8703 11.9134 11.0903 12.9042 10.9795Z" fill="#999"/>
</svg>
