<svg width="20" height="16" viewBox="0 0 20 16" fill="none" xmlns="http://www.w3.org/2000/svg">
<path fill-rule="evenodd" clip-rule="evenodd" d="M0.803694 4.3533C0.523551 6.95619 0.536038 9.95818 0.925862 12.5505C1.14156 13.9849 2.31223 15.0845 3.7573 15.2102L5.26753 15.3414C8.41658 15.6152 11.5834 15.6152 14.7325 15.3414L16.2427 15.2102C17.6878 15.0845 18.8585 13.9849 19.0742 12.5505C19.464 9.95817 19.4765 6.95636 19.1963 4.35345C19.1601 4.05169 19.1194 3.75034 19.0742 3.44949C18.8585 2.0151 17.6878 0.915451 16.2427 0.789834L14.7325 0.658552C11.5834 0.384812 8.41658 0.384812 5.26753 0.658553L3.7573 0.789834C2.31223 0.915451 1.14156 2.0151 0.925862 3.44949C0.880629 3.75028 0.839907 4.05159 0.803694 4.3533ZM5.39743 2.15292C8.46004 1.88669 11.54 1.88669 14.6026 2.15292L16.1128 2.2842C16.8671 2.34977 17.4782 2.92379 17.5908 3.67254C17.6025 3.7503 17.6139 3.82809 17.625 3.90592L12.064 6.99537C10.7804 7.70848 9.21959 7.70848 7.93599 6.99537L2.37505 3.90596C2.38611 3.82812 2.39749 3.75031 2.40918 3.67254C2.52178 2.92379 3.13287 2.34977 3.8872 2.2842L5.39743 2.15292ZM17.8085 5.51989C18.0025 7.78764 17.9299 10.0725 17.5908 12.3274C17.4782 13.0762 16.8671 13.6502 16.1128 13.7158L14.6026 13.8471C11.54 14.1133 8.46004 14.1133 5.39743 13.8471L3.8872 13.7158C3.13287 13.6502 2.52178 13.0762 2.40918 12.3274C2.07009 10.0725 1.99753 7.78766 2.1915 5.51992L7.20752 8.3066C8.94415 9.2714 11.0558 9.2714 12.7924 8.3066L17.8085 5.51989Z" fill="#f2f2f2"/>
</svg>
