<svg width="18" height="18" viewBox="0 0 18 18" fill="none" xmlns="http://www.w3.org/2000/svg">
<path fill-rule="evenodd" clip-rule="evenodd" d="M1.95723 2.19242C1.54563 3.52651 1.54563 4.97355 1.95723 6.30764C6.64155 6.7591 11.3584 6.7591 16.0428 6.30764C16.4544 4.97355 16.4544 3.52651 16.0428 2.19242C11.3584 1.74095 6.64155 1.74095 1.95723 2.19242ZM1.70874 0.709493C6.55801 0.235263 11.442 0.235263 16.2912 0.709493C16.8258 0.761769 17.2751 1.12806 17.4392 1.63383C17.9889 3.32692 17.9889 5.17314 17.4392 6.86623C17.2751 7.372 16.8258 7.73829 16.2912 7.79057C11.442 8.2648 6.55801 8.2648 1.70874 7.79057C1.17419 7.73829 0.724923 7.372 0.560739 6.86623C0.0111258 5.17314 0.0111259 3.32692 0.560739 1.63383C0.724923 1.12806 1.17419 0.761769 1.70874 0.709493Z" fill="#999"/>
<path fill-rule="evenodd" clip-rule="evenodd" d="M1.95723 11.6924C1.54563 13.0265 1.54563 14.4735 1.95723 15.8076C6.64155 16.2591 11.3584 16.2591 16.0428 15.8076C16.4544 14.4735 16.4544 13.0265 16.0428 11.6924C11.3584 11.241 6.64155 11.241 1.95723 11.6924ZM1.70874 10.2095C6.55801 9.73526 11.442 9.73526 16.2912 10.2095C16.8258 10.2618 17.2751 10.6281 17.4392 11.1338C17.9889 12.8269 17.9889 14.6731 17.4392 16.3662C17.2751 16.872 16.8258 17.2383 16.2912 17.2906C11.442 17.7648 6.55801 17.7648 1.70874 17.2906C1.17419 17.2383 0.724923 16.872 0.560739 16.3662C0.0111258 14.6731 0.0111259 12.8269 0.560739 11.1338C0.724923 10.6281 1.17419 10.2618 1.70874 10.2095Z" fill="#999"/>
</svg>
