<svg width="19" height="18" viewBox="0 0 19 18" fill="none" xmlns="http://www.w3.org/2000/svg">
<path fill-rule="evenodd" clip-rule="evenodd" d="M2.84027 6.85638C4.62759 10.7483 7.80807 13.8424 11.7618 15.519L11.7743 15.5243L12.5381 15.8648C13.5108 16.2981 14.654 15.9904 15.2776 15.1273L16.552 13.3635C16.6298 13.2558 16.6097 13.106 16.5063 13.0225L14.2816 11.2277C14.171 11.1385 14.0083 11.1593 13.9237 11.2735L13.0579 12.4418C12.8476 12.7256 12.4678 12.8242 12.1461 12.6786C9.18967 11.3407 6.81396 8.96494 5.47603 6.00854C5.33041 5.68678 5.42901 5.30702 5.71276 5.09674L6.88114 4.23088C6.99531 4.14628 7.01609 3.98365 6.92686 3.87305L5.13182 1.64801C5.04839 1.54459 4.89865 1.52451 4.79092 1.60228L3.01762 2.88244C2.14883 3.50963 1.84288 4.66247 2.28634 5.63792L2.83968 6.85508C2.83988 6.85552 2.84008 6.85595 2.84027 6.85638ZM11.1699 16.8973C6.87391 15.0737 3.41854 11.7107 1.4765 7.48097L1.47533 7.47843L0.920826 6.25871C0.181726 4.63296 0.691654 2.71155 2.13964 1.66624L3.91293 0.386081C4.66705 -0.158326 5.71528 -0.017721 6.29927 0.706172L8.09432 2.93122C8.71887 3.70539 8.5734 4.84378 7.77424 5.43602L7.10474 5.93218C8.23566 8.12657 10.028 9.91895 12.2224 11.0499L12.7186 10.3804C13.3108 9.5812 14.4492 9.43573 15.2234 10.0603L17.4481 11.8551C18.1722 12.4393 18.3127 13.4879 17.7678 14.242L16.4934 16.0058C15.4541 17.4442 13.5487 17.9572 11.9277 17.2349L11.1699 16.8973Z" fill="#f2f2f2"/>
</svg>
